<?xml version="1.0" standalone="no"?><svg xmlns="http://www.w3.org/2000/svg" viewBox="0 0 1440 320"><path fill="#f3f4f5" fill-opacity="1" d="M0,64L30,85.3C60,107,120,149,180,154.7C240,160,300,128,360,101.3C420,75,480,53,540,58.7C600,64,660,96,720,96C780,96,840,64,900,48C960,32,1020,32,1080,69.3C1140,107,1200,181,1260,176C1320,171,1380,85,1410,42.7L1440,0L1440,320L1410,320C1380,320,1320,320,1260,320C1200,320,1140,320,1080,320C1020,320,960,320,900,320C840,320,780,320,720,320C660,320,600,320,540,320C480,320,420,320,360,320C300,320,240,320,180,320C120,320,60,320,30,320L0,320Z"></path></svg>